<?xml version="1.0" encoding="utf-8"?>
<!-- Generator: Adobe Illustrator 22.0.1, SVG Export Plug-In . SVG Version: 6.00 Build 0)  -->
<svg version="1.1" id="Capa_1" xmlns="http://www.w3.org/2000/svg" xmlns:xlink="http://www.w3.org/1999/xlink" x="0px" y="0px"
	 viewBox="0 0 45 45" style="enable-background:new 0 0 45 45;" xml:space="preserve">
<style type="text/css">
	.st0{fill:none;}
	.st1{fill:#EDEDED;}
	.st2{fill:#DBDBDB;}
	.st3{fill:#386895;}
	.st4{fill:#B5B5B5;}
</style>
<rect class="st0" width="45" height="45"/>
<g>
	<path class="st1" d="M36.5,19.2h-27L4,13.6H1.2l2.3,11.6c0.3,1.4,1.5,2.4,2.9,2.4h35c1,0,1.8-0.8,1.8-1.8
		C43.2,22.2,40.2,19.2,36.5,19.2L36.5,19.2z M36.5,19.2"/>
	<path class="st2" d="M3.2,23.9l0.3,1.3c0.3,1.4,1.5,2.4,2.9,2.4h35c1,0,1.8-0.8,1.8-1.8c0-0.7-0.1-1.3-0.3-1.9H3.2z M3.2,23.9"/>
	<path class="st3" d="M41.6,21.6H38c-0.5,0-1,0.4-1,1v0.1c0,0.5,0.4,1,1,1h4.8C42.5,22.9,42.1,22.2,41.6,21.6L41.6,21.6z M41.6,21.6
		"/>
	<path class="st3" d="M33.5,22.8c0,0.4-0.4,0.8-0.8,0.8c-0.4,0-0.8-0.4-0.8-0.8c0-0.4,0.4-0.8,0.8-0.8C33.2,22,33.5,22.4,33.5,22.8
		L33.5,22.8z M33.5,22.8"/>
	<path class="st3" d="M29.1,22.8c0,0.4-0.4,0.8-0.8,0.8c-0.4,0-0.8-0.4-0.8-0.8c0-0.4,0.4-0.8,0.8-0.8C28.8,22,29.1,22.4,29.1,22.8
		L29.1,22.8z M29.1,22.8"/>
	<path class="st3" d="M24.3,22.8c0,0.4-0.4,0.8-0.8,0.8c-0.4,0-0.8-0.4-0.8-0.8c0-0.4,0.4-0.8,0.8-0.8C24,22,24.3,22.4,24.3,22.8
		L24.3,22.8z M24.3,22.8"/>
	<path class="st3" d="M19.5,22.8c0,0.4-0.4,0.8-0.8,0.8c-0.4,0-0.8-0.4-0.8-0.8c0-0.4,0.4-0.8,0.8-0.8C19.2,22,19.5,22.4,19.5,22.8
		L19.5,22.8z M19.5,22.8"/>
	<path class="st3" d="M14.8,22.8c0,0.4-0.4,0.8-0.8,0.8c-0.4,0-0.8-0.4-0.8-0.8c0-0.4,0.4-0.8,0.8-0.8C14.4,22,14.8,22.4,14.8,22.8
		L14.8,22.8z M14.8,22.8"/>
	<path class="st4" d="M25.1,25.6H13.1l-9,9h6L25.1,25.6z M25.1,25.6"/>
</g>
</svg>
