<?xml version="1.0" encoding="utf-8"?>
<!-- Generator: Adobe Illustrator 22.0.1, SVG Export Plug-In . SVG Version: 6.00 Build 0)  -->
<svg version="1.1" id="Capa_1" xmlns="http://www.w3.org/2000/svg" xmlns:xlink="http://www.w3.org/1999/xlink" x="0px" y="0px"
	 viewBox="0 0 60 60" style="enable-background:new 0 0 60 60;" xml:space="preserve">
<style type="text/css">
	.st0{fill:none;}
	.st1{fill:#F7F7F7;}
	.st2{clip-path:url(#SVGID_2_);}
	.st3{fill:#D1D1D1;}
	.st4{clip-path:url(#SVGID_4_);fill:#BFBFBF;}
	.st5{clip-path:url(#SVGID_2_);fill:#E2E2E2;}
</style>
<rect x="7.5" y="7.5" class="st0" width="45" height="45"/>
<g>
	<g>
		<g>
			<circle id="circle_1_" class="st1" cx="30" cy="30" r="30"/>
		</g>
		<g>
			<defs>
				<circle id="SVGID_1_" cx="30" cy="30" r="30"/>
			</defs>
			<clipPath id="SVGID_2_">
				<use xlink:href="#SVGID_1_"  style="overflow:visible;"/>
			</clipPath>
			<g class="st2">
				<g>
					<path id="shoulders_1_" class="st3" d="M37.8,43.1c0,2.4,2.8,3.1,4.3,3.5c4.6,1.2,13.7,3.5,13.7,3.5c1.9,0.7,3.4,2.1,4.3,4V60
						H0v-5.9c0.8-1.9,2.3-3.3,4.3-4c0,0,9.1-2.3,13.7-3.5c1.4-0.4,4.3-1.1,4.3-3.5c0-2.4,0-6.5,0-6.5h15.6
						C37.8,36.6,37.8,40.7,37.8,43.1z"/>
				</g>
				<g>
					<defs>
						<path id="SVGID_3_" d="M37.8,43.1c0,2.4,2.8,3.1,4.3,3.5c4.6,1.2,13.7,3.5,13.7,3.5c1.9,0.7,3.4,2.1,4.3,4V60H0v-5.9
							c0.8-1.9,2.3-3.3,4.3-4c0,0,9.1-2.3,13.7-3.5c1.4-0.4,4.3-1.1,4.3-3.5c0-2.4,0-6.5,0-6.5h15.6C37.8,36.6,37.8,40.7,37.8,43.1z
							"/>
					</defs>
					<clipPath id="SVGID_4_">
						<use xlink:href="#SVGID_3_"  style="overflow:visible;"/>
					</clipPath>
					<path id="head-shadow_1_" class="st4" d="M30.1,6.6c0.1,0,0.1,0,0.1,0l0,0c2,0,4.9,0.1,6.8,1.2c2,1.1,4.4,3.4,5.1,7.3
						c1.4,8.2-1.3,21.2-3.8,25.4c-2.4,4-5.9,5.5-8.1,5.6h-0.1c-0.1,0-0.1,0-0.1,0c-0.1,0-0.1,0-0.1,0h-0.1c-2.2-0.1-5.7-1.6-8.1-5.6
						c-2.5-4.2-5.2-17.2-3.8-25.4c0.7-3.9,3.1-6.1,5.1-7.3C25.1,6.7,28,6.6,30,6.6l0,0C30.1,6.6,30.1,6.6,30.1,6.6L30.1,6.6z"/>
				</g>
			</g>
			<path id="head_1_" class="st5" d="M29.8,9.6c11.5,0,12.4,8.3,12.5,9.1c0.7,7.1-1.8,16.9-4.1,20.2c-2.4,3.5-5.9,4.9-8.1,5
				c-0.1,0-0.1,0-0.2,0s-0.1,0-0.1,0c-2.3-0.2-5.8-1.5-8.2-5c-2.3-3.4-4.7-13.1-4.1-20.3C17.6,17.8,18.3,9.6,29.8,9.6z"/>
		</g>
	</g>
</g>
</svg>
