<?xml version="1.0" encoding="utf-8"?>
<!-- Generator: Adobe Illustrator 22.0.1, SVG Export Plug-In . SVG Version: 6.00 Build 0)  -->
<svg version="1.1" id="Capa_1" xmlns="http://www.w3.org/2000/svg" xmlns:xlink="http://www.w3.org/1999/xlink" x="0px" y="0px"
	 viewBox="0 0 45 45" style="enable-background:new 0 0 45 45;" xml:space="preserve">
<style type="text/css">
	.st0{fill:none;}
	.st1{fill:#176174;}
	.st2{fill:#9F383A;}
	.st3{fill:#EDE9E4;}
	.st4{fill:#EF4941;}
	.st5{opacity:0.86;fill:#B3B3B3;}
	.st6{fill:#D8D3CE;}
	.st7{opacity:0.86;fill:#969696;}
</style>
<rect y="0.1" class="st0" width="45" height="45"/>
<g>
	<path class="st1" d="M35.1,36.2c0,0.6,0.5,1,1,1h4.5c0.6,0,1-0.5,1-1V25.4c0-0.6-0.5-1-1-1h-4.5c-0.6,0-1,0.5-1,1V36.2z"/>
	<path class="st1" d="M3.8,36.2c0,0.6,0.5,1,1,1h4.5c0.6,0,1-0.5,1-1V25.4c0-0.6-0.5-1-1-1H4.9c-0.6,0-1,0.5-1,1V36.2z"/>
	<path class="st2" d="M7.1,27.7C7.1,28.5,6.4,29,5.6,29c-0.8-0.1-1.3-0.8-1.3-1.5c0.1-0.8,0.8-1.4,1.5-1.3
		C6.6,26.2,7.2,26.9,7.1,27.7z"/>
	<path class="st2" d="M9.6,27.9c-0.1,0.6-0.6,1-1.1,0.9c-0.6-0.1-1-0.5-0.9-1.1c0.1-0.6,0.5-1,1.1-0.9C9.2,26.9,9.6,27.4,9.6,27.9z"
		/>
	<path class="st2" d="M35.6,30.5c-0.1,0.6-0.5,1-1.1,0.9c-0.6-0.1-1-0.6-0.9-1.1c0.1-0.6,0.5-1,1.1-0.9
		C35.2,29.4,35.6,29.9,35.6,30.5z"/>
	<path class="st2" d="M39,30.8c-0.1,0.8-0.8,1.3-1.5,1.3c-0.8-0.1-1.3-0.8-1.3-1.6c0.1-0.8,0.8-1.3,1.5-1.3C38.5,29.3,39,30,39,30.8
		z"/>
	<g>
		<path class="st3" d="M13.4,20.7C11.7,23.5,10,23,7.9,23c-1.1,0-2.8,0-3.1-1.4c-0.1-0.4-0.1-0.9,0-1.3c0.1-0.7,0.3-0.6,1-0.6
			c1.1,0,2.1,0.1,3.2,0.3C10.3,20.3,12,20.2,13.4,20.7z"/>
		<path class="st4" d="M38.9,16.1c0.2,0.1,0.2,0.2,0.4,0.3c0.2,0,0.5-0.1,0.8-0.1c0.5-0.1,1-0.1,1.4-0.2c0.7-0.2,1-0.9,1-1.6
			c-0.1-0.7-0.7-0.9-1.2-0.9c-0.5-0.1-1.2-0.3-1.7,0c-0.7,0.4-0.4,1.8-1.5,1.6c-0.9-1.6-3.4-5.5-3.6-5.7c-0.3-0.3-0.8-0.7-1.6-0.9
			C31.9,8.3,24,7.9,22.5,7.9c-1.5,0-9.4,0.4-10.2,0.5c-0.8,0.1-1.3,0.6-1.6,0.9C10.6,9.5,8,13.5,7.1,15c-1.1,0.2-0.8-1.1-1.5-1.6
			c-0.5-0.3-1.2-0.1-1.7,0c-0.5,0.1-1.2,0.3-1.2,0.9c0,0.7,0.2,1.4,1,1.6c0.5,0.1,0.9,0.2,1.4,0.3c0.2,0,0.5,0.2,0.8,0.1
			c0.2,0,0.2-0.2,0.4-0.3c0.2,0,0.4,0,0.5,0.1c0,0.1-0.2,0.2-0.3,0.3c0,0,0,0,0,0c-0.2,0.1-1.1,0.7-1.6,1.3c-0.7,0.7-2,1.9-2,2.5
			c0,0.7-0.3,1.1-0.3,2.4c0,0.6,0.2,2.5,0.4,4.4c0.2,1.9,0.3,3.7,0.4,3.9c0,0.3-0.1,0.6,0.1,0.8C3.4,32,3.7,32,4.2,32
			c0.2,0,1.8,0,4.1,0.1c5.4,0.1,14.2,0.2,14.2,0.2s9.1-0.1,14.5-0.2c2.1,0,3.7,0,3.8,0c0.5,0,0.8-0.1,0.9-0.3c0.1-0.2,0-0.6,0.1-0.8
			c0-0.2,0.3-3.5,0.6-5.9c0.1-1.1,0.2-2,0.2-2.4c0.1-1.3-0.2-1.8-0.2-2.4c0-0.6-1.5-2-2-2.5c-0.3-0.3-1.3-1.1-1.6-1.4
			c-0.2-0.1-0.2-0.1-0.3-0.3C38.5,16.2,38.7,16.1,38.9,16.1z M6.4,30.5c-0.8,0-1.4-0.6-1.4-1.4c0-0.8,0.6-1.4,1.4-1.4
			c0.8,0,1.4,0.6,1.4,1.4C7.9,29.9,7.2,30.5,6.4,30.5z M9.3,30.1c-0.6,0-1-0.4-1-1c0-0.6,0.4-1,1-1c0.6,0,1,0.5,1,1
			C10.3,29.7,9.8,30.1,9.3,30.1z M10.4,27.4c0.1,0,0.2,0,0.3,0c0.1,0,0.3,0,0.4,0c0.1,0,0.1,0,0.2,0C11,27.5,10.7,27.5,10.4,27.4z
			 M7.9,23c-1.1,0-2.8,0-3.1-1.4c-0.1-0.4-0.1-0.9,0-1.3c0.1-0.7,0.3-0.6,1-0.6c1.1,0,2.1,0.1,3.2,0.3c1.4,0.2,3,0.2,4.4,0.6
			C11.7,23.5,10,23,7.9,23z M7.4,15.9c-0.3,0,3.8-6.4,3.8-6.4L22.5,9l11.4,0.5c0,0,4.1,6.4,3.8,6.4c-0.3,0-10.5-0.6-15.1-0.5
			C17.9,15.3,7.7,15.9,7.4,15.9z M34.4,29.2c0-0.6,0.4-1,1-1c0.6,0,1,0.4,1,1c0,0.6-0.4,1-1,1C34.9,30.2,34.4,29.7,34.4,29.2z
			 M37,29.2c0-0.8,0.6-1.4,1.4-1.4c0.8,0,1.4,0.6,1.4,1.4c0,0.8-0.6,1.4-1.4,1.4C37.7,30.6,37,30,37,29.2z M35.6,27.4
			c0.1,0,0.3,0,0.4,0c0,0,0.1,0,0.1,0C36,27.4,35.8,27.4,35.6,27.4z M39.2,19.8c0.7,0,0.8-0.1,1,0.6c0.1,0.4,0.1,1,0,1.3
			c-0.3,1.3-2,1.3-3.1,1.3c-2,0-3.8,0.5-5.4-2.4c1.4-0.4,3-0.4,4.4-0.6C37.1,19.9,38.2,19.8,39.2,19.8z"/>
		<path class="st1" d="M37.6,15.9c-0.3,0-10.5-0.6-15.1-0.5c-4.6-0.1-14.8,0.5-15.1,0.5c-0.3,0,3.8-6.4,3.8-6.4L22.5,9l11.4,0.5
			C33.9,9.5,38,15.9,37.6,15.9z"/>
		<path class="st3" d="M40.2,21.7c-0.3,1.3-2,1.3-3.1,1.3c-2,0-3.8,0.5-5.4-2.4c1.4-0.4,3-0.4,4.4-0.6c1.1-0.2,2.1-0.3,3.2-0.3
			c0.7,0,0.8-0.1,1,0.6C40.3,20.8,40.3,21.3,40.2,21.7z"/>
		<path class="st5" d="M13.7,27.9c-0.3,1.1-0.6,2.5-1.7,2.9C11.3,31.1,9.8,31,9,31c-1.2,0-2.4-0.1-3.7-0.1c-1.1,0-1.3-0.4-1-1.5
			c0.3-0.8,0.1-1.6,0.9-1.9C6,27.3,11.5,27.4,13.7,27.9z"/>
		<path class="st5" d="M39.5,31c-1.2,0-2.4,0-3.7,0c-0.7,0-2.3,0.1-3-0.2c-1.1-0.4-1.4-1.8-1.7-2.9c2.2-0.5,7.7-0.6,8.5-0.3
			c0.8,0.3,0.7,1.1,0.9,1.9C40.8,30.6,40.6,31,39.5,31z"/>
		<path class="st6" d="M7.9,29.1c0,0.8-0.6,1.4-1.4,1.4c-0.8,0-1.4-0.6-1.4-1.4c0-0.8,0.6-1.4,1.4-1.4C7.2,27.7,7.9,28.4,7.9,29.1z"
			/>
		<path class="st6" d="M10.3,29.1c0,0.6-0.5,1-1,1c-0.6,0-1-0.4-1-1c0-0.6,0.4-1,1-1C9.9,28.1,10.3,28.6,10.3,29.1z"/>
		<path class="st6" d="M39.8,29.2c0,0.8-0.6,1.4-1.4,1.4c-0.8,0-1.4-0.6-1.4-1.4c0-0.8,0.6-1.4,1.4-1.4
			C39.2,27.8,39.9,28.4,39.8,29.2z"/>
		<path class="st6" d="M36.5,29.2c0,0.6-0.4,1-1,1c-0.6,0-1-0.5-1-1c0-0.6,0.4-1,1-1C36,28.2,36.5,28.6,36.5,29.2z"/>
		<path class="st7" d="M31.1,25.6c-0.2,0.9-0.8,2.7-1.2,3.8c-0.4,1.1-2,1-2.1,1l-10.7,0c-0.2,0-1.7,0.1-2.1-1
			c-0.4-1.1-1-2.9-1.2-3.8c-0.2-0.9-1-2.6,3.6-2.5c2.3,0.1,4,0.1,5.1,0c1.1,0,2.8,0,5.1,0C32.1,23.1,31.4,24.7,31.1,25.6z"/>
	</g>
</g>
</svg>
