<?xml version="1.0" encoding="utf-8"?>
<!-- Generator: Adobe Illustrator 22.0.1, SVG Export Plug-In . SVG Version: 6.00 Build 0)  -->
<svg version="1.1" id="Capa_1" xmlns="http://www.w3.org/2000/svg" xmlns:xlink="http://www.w3.org/1999/xlink" x="0px" y="0px"
	 viewBox="0 0 45 45" style="enable-background:new 0 0 45 45;" xml:space="preserve">
<style type="text/css">
	.st0{fill:none;}
	.st1{fill:#FFE845;}
	.st2{fill:#FFC41F;}
	.st3{fill:#FF9E08;}
	.st4{fill:#FFFFFF;}
</style>
<rect x="0" y="0" class="st0" width="45" height="45"/>
<g>
	<path class="st1" d="M3.3,21.3l1.5,5.9l-0.2,3.9h35.9l-0.2-3.9l1.5-5.9c0.4,0,0.8-0.4,0.8-0.8c0-0.5-0.4-0.8-0.8-0.8
		c-0.5,0-0.8,0.4-0.8,0.8c0,0.2,0.1,0.4,0.2,0.6c0,0-1.3,5-1.6,5.1c-0.3,0.2-1.2,0-1.3-1.7c-0.1-1.7-0.3-6.2-0.3-6.2
		c0.4-0.1,0.8-0.5,0.8-1c0-0.5-0.4-1-1-1c-0.5,0-1,0.4-1,1c0,0.4,0.2,0.7,0.5,0.9c0,0-2.6,5.5-3.6,6.2c-1,0.7-2.6,0.8-3.9,0.3
		c-1.3-0.5-1.9-1.4-2.8-2.9c-0.9-1.5-3.8-7.1-3.8-7.1c0.5-0.2,0.9-0.7,0.9-1.3c0-0.8-0.6-1.4-1.4-1.4c-0.8,0-1.4,0.7-1.4,1.4
		c0,0.6,0.4,1.1,0.9,1.3c0,0-2.9,5.7-3.8,7.1c-0.9,1.5-1.5,2.5-2.8,2.9c-1.3,0.5-3,0.4-4-0.3c-1-0.7-3.6-6.2-3.6-6.2
		c0.3-0.2,0.5-0.5,0.5-0.9c0-0.5-0.4-1-1-1c-0.5,0-1,0.4-1,1c0,0.5,0.3,0.9,0.8,1c0,0-0.1,4.6-0.3,6.2c-0.1,1.7-1,1.9-1.3,1.7
		C5.2,26,3.9,21,3.9,21c0.1-0.2,0.2-0.3,0.2-0.6c0-0.5-0.4-0.8-0.8-0.8c-0.5,0-0.8,0.4-0.8,0.8C2.5,20.9,2.8,21.2,3.3,21.3z"/>
	<path class="st2" d="M41.7,19.6c-0.5,0-0.8,0.4-0.8,0.8c0,0.2,0.1,0.4,0.2,0.6c0,0-1.3,5-1.6,5.1c-0.3,0.2-1.2,0-1.3-1.7
		c-0.1-1.7-0.3-6.2-0.3-6.2c0.4-0.1,0.8-0.5,0.8-1c0-0.5-0.4-1-1-1c-0.5,0-1,0.4-1,1c0,0.4,0.2,0.7,0.5,0.9c0,0-2.6,5.5-3.6,6.2
		c-1,0.7-2.6,0.8-3.9,0.3c-1.3-0.5-1.9-1.4-2.8-2.9c-0.9-1.5-3.8-7.1-3.8-7.1c0.5-0.2,0.9-0.7,0.9-1.3c0-0.8-0.6-1.4-1.4-1.4
		c0,0,0,0,0,0v19.2h17.9l-0.2-3.9l1.5-5.9c0.4,0,0.8-0.4,0.8-0.8C42.5,20,42.1,19.6,41.7,19.6z"/>
	<g>
		<path class="st3" d="M40.4,31.7l-35.9,0c-0.4,0-0.7-0.3-0.7-0.7c0-0.4,0.3-0.7,0.7-0.7h35.9c0.4,0,0.7,0.3,0.7,0.7
			C41.2,31.4,40.9,31.7,40.4,31.7z"/>
	</g>
	<g>
		<path class="st4" d="M9.2,30.3H6.6c-0.2,0-0.3,0.1-0.3,0.3c0,0.2,0.1,0.3,0.3,0.3l2.6,0c0.1,0,0.2,0,0.2-0.1
			c0.1-0.1,0.1-0.1,0.1-0.2C9.5,30.4,9.4,30.3,9.2,30.3z"/>
		<path class="st4" d="M19,30.3l-7.9,0c-0.2,0-0.3,0.1-0.3,0.3c0,0.2,0.1,0.3,0.3,0.3l7.9,0c0.1,0,0.2,0,0.2-0.1
			c0.1-0.1,0.1-0.1,0.1-0.2C19.3,30.4,19.2,30.3,19,30.3z"/>
	</g>
</g>
</svg>
