<?xml version="1.0" encoding="utf-8"?>
<!-- Generator: Adobe Illustrator 22.0.1, SVG Export Plug-In . SVG Version: 6.00 Build 0)  -->
<svg version="1.1" id="Capa_1" xmlns="http://www.w3.org/2000/svg" xmlns:xlink="http://www.w3.org/1999/xlink" x="0px" y="0px"
	 viewBox="0 0 45 45" style="enable-background:new 0 0 45 45;" xml:space="preserve">
<style type="text/css">
	.st0{fill:none;}
	.st1{fill:#314B58;}
</style>
<rect y="0.1" class="st0" width="45" height="45"/>
<g>
	<g>
		<path class="st1" d="M43.3,20.9C43.3,20.9,43.3,20.9,43.3,20.9C33,22.8,30,5.2,19.4,7.6c-0.1,0-0.1,0-0.2,0
			c-1.6,5.8-4.6,11.4-8.8,16.7c0.1,0,0.1,0,0.2,0c12.1-1.5,12,14.2,23.9,13.2c0,0,0,0,0,0c0.1,0,0.1,0,0.2,0
			c4.2-5.2,7.2-10.9,8.8-16.7C43.4,20.9,43.4,20.9,43.3,20.9z M40.1,21c-0.4,1.2-0.8,2.3-1.2,3.4c-1-0.2-2-0.6-2.8-1.1
			c0.5-1.1,0.9-2.3,1.3-3.5C38.2,20.4,39.1,20.8,40.1,21z M32,24.9c0.6-1.1,1.1-2.2,1.6-3.4c0.8,0.7,1.6,1.3,2.4,1.8
			c-0.5,1.1-1,2.3-1.6,3.4C33.5,26.3,32.8,25.6,32,24.9z M27.6,20.1c0.5-1.1,1-2.3,1.5-3.5c0.7,0.8,1.4,1.7,2.1,2.5
			c-0.5,1.2-1,2.3-1.5,3.4C29,21.8,28.3,20.9,27.6,20.1z M23,15.8c0.5-1.1,1-2.3,1.4-3.5c0.9,0.5,1.7,1.2,2.4,1.9
			c-0.4,1.2-0.9,2.4-1.4,3.5C24.6,17,23.8,16.3,23,15.8z M21.3,19.1c-0.9-0.5-1.8-0.9-2.8-1.2c0.6-1.1,1.1-2.2,1.6-3.3
			c1,0.2,1.9,0.6,2.8,1.2C22.5,16.9,21.9,18,21.3,19.1z M34.8,18c-0.4,1.2-0.8,2.4-1.3,3.5c-0.8-0.7-1.5-1.5-2.3-2.4
			c0.5-1.2,0.9-2.4,1.3-3.6C33.3,16.4,34,17.2,34.8,18z M30.3,13c-0.4,1.2-0.8,2.4-1.2,3.6c-0.7-0.8-1.5-1.7-2.3-2.4
			c0.4-1.2,0.8-2.4,1.1-3.6C28.8,11.3,29.5,12.1,30.3,13z M25.4,8.7c-0.3,1.2-0.7,2.4-1.1,3.5c-0.9-0.5-1.8-0.9-2.8-1.1
			c0.4-1.1,0.8-2.3,1.1-3.5C23.6,7.9,24.6,8.2,25.4,8.7z M18.3,11.2c1.2-0.2,2.2-0.2,3.2,0c-0.4,1.2-0.9,2.3-1.4,3.4
			c-1-0.2-2.1-0.3-3.3-0.1C17.4,13.4,17.8,12.3,18.3,11.2z M15.1,17.8c1.2-0.2,2.4-0.1,3.4,0.1c-0.6,1.1-1.2,2.2-1.9,3.2
			c-1-0.2-2.2-0.3-3.5-0.1C13.8,20,14.5,18.9,15.1,17.8z M14.4,24.2c0.8-1,1.5-2,2.2-3c1,0.2,2,0.6,2.8,1.2c-0.7,1-1.4,2-2.1,3
			C16.4,24.8,15.4,24.4,14.4,24.2z M21.8,29.4c-0.7-0.8-1.4-1.6-2.1-2.3c0.8-1,1.5-1.9,2.2-3c-0.7-0.7-1.5-1.3-2.4-1.9
			c0.7-1,1.3-2.1,1.9-3.2c0.9,0.5,1.6,1.2,2.4,1.9c0.6-1.1,1.1-2.2,1.7-3.3c0.8,0.7,1.5,1.5,2.2,2.4c-0.5,1.1-1.1,2.2-1.7,3.3
			c-0.7-0.8-1.4-1.6-2.2-2.3c-0.6,1.1-1.2,2.1-1.9,3.2c0.7,0.7,1.4,1.5,2.1,2.3C23.3,27.5,22.5,28.5,21.8,29.4z M25.8,34.1
			c-0.7-0.7-1.4-1.5-2.1-2.3c0.8-0.9,1.5-1.9,2.2-2.9c-0.7-0.8-1.4-1.6-2-2.4c0.7-1,1.3-2,2-3.1c0.7,0.8,1.4,1.7,2.1,2.5
			c0.6-1,1.2-2.1,1.8-3.2c0.7,0.8,1.4,1.6,2.2,2.3c-0.6,1.1-1.2,2.2-1.8,3.2c-0.8-0.7-1.5-1.5-2.2-2.3c0,0,0,0,0,0
			c-0.6,1.1-1.3,2.1-2,3.1c0,0,0,0,0,0c0.7,0.8,1.4,1.6,2.1,2.3C27.4,32.2,26.6,33.2,25.8,34.1z M31,37.2c-1.1-0.3-2-0.7-2.8-1.2
			c0.8-0.9,1.6-1.9,2.3-2.9c-0.9-0.5-1.7-1.2-2.4-1.9c0.7-1,1.4-2,2.1-3.1c0.8,0.7,1.6,1.3,2.4,1.8c0.6-1,1.3-2.1,1.8-3.2
			c0.9,0.5,1.8,0.9,2.9,1.1c-0.6,1.1-1.2,2.2-1.8,3.2c-1.1-0.2-2-0.6-2.9-1.1c0,0,0,0,0,0c-0.7,1.1-1.4,2.1-2.1,3.1c0,0,0,0,0,0
			c0.9,0.5,1.8,0.9,2.9,1.1C32.6,35.2,31.9,36.2,31,37.2z M36.9,34.3c-1.3,0.2-2.5,0.1-3.5-0.1c0.7-1,1.4-2.1,2.1-3.1
			c1.1,0.2,2.2,0.2,3.5,0C38.3,32.2,37.7,33.2,36.9,34.3z M40.7,27.8c-1.2,0.2-2.4,0.2-3.4,0c0.6-1.1,1.1-2.2,1.5-3.4
			c1,0.2,2.1,0.2,3.3,0C41.7,25.6,41.3,26.7,40.7,27.8z"/>
		
			<rect x="-7.9" y="21.4" transform="matrix(0.4688 -0.8833 0.8833 0.4688 -13.6453 21.3273)" class="st1" width="37.7" height="1.3"/>
	</g>
</g>
</svg>
