<?xml version="1.0" encoding="utf-8"?>
<!-- Generator: Adobe Illustrator 22.0.1, SVG Export Plug-In . SVG Version: 6.00 Build 0)  -->
<svg version="1.1" id="Capa_1" xmlns="http://www.w3.org/2000/svg" xmlns:xlink="http://www.w3.org/1999/xlink" x="0px" y="0px"
	 viewBox="0 0 112 22" style="enable-background:new 0 0 112 22;" xml:space="preserve">
<style type="text/css">
	.st0{fill:#FFFFFF;}
</style>
<title>Logo</title>
<desc>Created with Sketch.</desc>
<path id="Logo" class="st0" d="M16.6,10.2c0,0,0,0.3-0.1,0.5c3.9,0.8,6.7,2.7,6.7,4.9c0,2.9-4.9,5.4-11.1,5.4H12
	c-6.1,0-11-2.3-11-5.3c0-2.2,3-4,6.6-4.9c0,1.2,4.1,5,4.2,6.6c0,0,0,0.1,0,0.3c0,0.1,0,0.2,0,0.2c0.9-0.5,0.9-1.9,0.9-1.9
	c0-3.4-4-4.9-4-8.2c0-1.3,0.6-2.2,1.2-2.5v0.9c0,2.4,4.3,5.1,4.3,7.3v0.7c1-0.4,1-2.2,1-2.2c0-3-4-4.7-4-8.2c0-1.3,0.6-2.2,1.2-2.5
	v0.9C12.4,4.8,16.6,7.5,16.6,10.2z M31.6,19.2c-2.1,0-3.6-0.6-3.6-0.6V15h0.5c0.3,1.9,1.7,3.3,3.4,3.3s2.8-0.9,2.8-2.3
	c0-1.5-1.5-2.2-2.6-2.7l-1.5-0.7c-1.4-0.7-2.6-1.8-2.6-3.4c0-2,1.5-3.7,4.3-3.7c1.9,0,3.6,0.6,3.6,0.6v3.2h-0.5
	c-0.3-1.7-1.3-3-3.2-3c-1.5,0-2.3,1-2.3,2c0,1.3,0.9,1.9,2,2.4l1.5,0.7c1.4,0.7,3,1.8,3,3.7C36.5,17.6,34.7,19.2,31.6,19.2z
	 M41.2,15.3c-0.4,0.2-1.1,0.5-1.1,1.4c0,0.5,0.3,1.3,1.3,1.3c0.5,0,1.1-0.3,1.6-0.6v-2.9L41.2,15.3L41.2,15.3z M40.4,19.1
	c-1.3,0-2.1-0.8-2.1-2.1c0-0.9,0.7-1.6,2.1-2.1L43,14v-0.8c0-1.2-0.6-1.9-1.4-1.9c-0.6,0-1.1,0.3-1.4,0.7c-0.1,0.2-0.1,0.4-0.1,0.6
	c0,0.3,0.2,0.7,0.2,0.7L39,13.9c-0.2-0.3-0.3-0.7-0.3-1.1c0-0.1,0-0.2,0-0.2c0.1-0.7,0.7-1.1,1.5-1.6s1.5-0.6,1.9-0.6
	c2.4,0,2.8,1.9,2.8,2.5v3.9c0,0.6,0.1,1,0.6,1c0.2,0,0.2,0,0.5-0.1l0.5-0.2v0.6l-2.7,1c-0.4-0.3-0.6-0.8-0.7-1.2
	C42.4,18.4,41.3,19.1,40.4,19.1z M47,18.9v-0.4l0.6-0.1c0.4-0.1,0.6-0.4,0.6-0.7v-5c0-0.4-0.2-0.7-0.6-0.7c-0.1,0-0.3,0-0.4,0.1
	L47,12.2v-0.7l2.7-1.2h0.4v1.4c0.8-0.9,1.8-1.4,2.7-1.4c1.9,0,2.9,1.4,2.9,3v4.3c0,0.4,0.3,0.7,0.7,0.7l0.6,0.1v0.5h-4.5v-0.4
	l0.6-0.1c0.4-0.1,0.7-0.4,0.7-0.7v-4.3c0-0.6-0.2-1.8-1.7-1.8c-0.8,0-1.5,0.5-2,0.9v5.2c0,0.4,0.3,0.7,0.7,0.7l0.6,0.1V19L47,18.9
	L47,18.9z M63.6,11.5H61v4.7c0,1,0.6,1.6,1.4,1.6c0.3,0,0.8-0.1,1.3-0.4l0.2,0.5L62.2,19c0,0-0.3,0.1-0.5,0.1c-1.7,0-2.6-1-2.6-3
	v-4.6h-1.4V11c0,0,2.1-0.8,2.9-2.7H61v2.4h3L63.6,11.5z M67.6,15.3c-0.4,0.2-1.1,0.5-1.1,1.4c0,0.5,0.3,1.3,1.3,1.3
	c0.5,0,1.1-0.3,1.6-0.6v-2.9L67.6,15.3L67.6,15.3z M66.9,19.1c-1.3,0-2.1-0.8-2.1-2.1c0-0.9,0.7-1.6,2.1-2.1l2.6-0.9v-0.8
	c0-1.2-0.6-1.9-1.4-1.9c-0.6,0-1.1,0.3-1.4,0.7c-0.1,0.2-0.1,0.4-0.1,0.6c0,0.3,0.2,0.7,0.2,0.7l-1.3,0.6c-0.2-0.3-0.3-0.7-0.3-1.1
	c0-0.1,0-0.2,0-0.2c0.1-0.7,0.7-1.1,1.5-1.6s1.5-0.6,1.9-0.6c2.4,0,2.8,1.9,2.8,2.5v3.9c0,0.6,0.1,1,0.6,1c0.2,0,0.2,0,0.5-0.1
	l0.5-0.2v0.6l-2.7,1c-0.4-0.3-0.6-0.8-0.7-1.2C68.9,18.4,67.8,19.1,66.9,19.1L66.9,19.1z M73.4,18.9v-0.4l0.6-0.1
	c0.4-0.1,0.6-0.4,0.6-0.7v-5c0-0.4-0.2-0.7-0.6-0.7c-0.1,0-0.3,0-0.4,0.1l-0.2,0.1v-0.7l2.7-1.2h0.4v1.4c0.8-0.9,1.8-1.4,2.7-1.4
	c1.9,0,2.9,1.4,2.9,3v4.3c0,0.4,0.3,0.7,0.7,0.7l0.6,0.1v0.5h-4.5v-0.4l0.6-0.1c0.4-0.1,0.7-0.4,0.7-0.7v-4.3c0-0.6-0.2-1.8-1.7-1.8
	c-0.8,0-1.5,0.5-2,0.9v5.2c0,0.4,0.3,0.7,0.7,0.7l0.6,0.1V19L73.4,18.9L73.4,18.9z M89.2,11.2c-1.4,0-2.8,0.9-2.8,3.4
	c0,2.1,1.1,3.4,2.7,3.4c1,0,1.6-0.6,1.8-0.9v-4.9C90.7,11.5,90,11.2,89.2,11.2L89.2,11.2z M88.3,19.1c-1.8,0-4-1.3-4-4.2
	c0-2.5,2-4.6,4.6-4.6c0.9,0,1.5,0.2,2,0.4V6.4c0-0.5-0.2-0.6-0.6-0.6c-0.2,0-0.4,0-0.5,0.1L89.4,6V5.5l3-1.2h0.4v12.4
	c0,0.7,0.1,1.1,0.6,1.1c0.2,0,0.2,0,0.5-0.1l0.5-0.2v0.6l-2.7,1c-0.4-0.3-0.6-0.8-0.7-1.2C90.5,18.4,89.6,19.1,88.3,19.1L88.3,19.1z
	 M101.1,13.3L101.1,13.3c0-1.5-0.8-2.1-1.8-2.1c-1.1,0-1.9,0.7-2.1,2.1H101.1L101.1,13.3z M97.2,14.1L97.2,14.1
	c0,2.6,1.4,3.9,3.2,3.9c0.9,0,1.8-0.3,2.4-0.8V18c-0.8,0.7-1.9,1.3-3.4,1.3c-3,0-4.3-2.2-4.3-4.3c0-2.5,1.9-4.5,4.3-4.5
	c2,0,3.6,1.4,3.6,3.5v0.2h-5.8V14.1z M104.2,18.9v-0.4l0.6-0.1c0.4-0.1,0.6-0.4,0.6-0.7v-5c0-0.4-0.2-0.7-0.6-0.7
	c-0.1,0-0.3,0-0.4,0.1l-0.2,0.1v-0.7l2.7-1.2h0.4v1.8c0.7-1.3,1.5-1.9,2.4-1.9c0.8,0,1,0.2,1,0.2v2h-0.4c-0.1-0.5-0.5-0.8-1-0.8
	c-0.6,0-1.4,0.2-1.9,1.3v4.6c0,0.4,0.4,0.7,0.7,0.7l0.9,0.1v0.5L104.2,18.9L104.2,18.9z"/>
</svg>
