<?xml version="1.0" encoding="utf-8"?>
<!-- Generator: Adobe Illustrator 22.0.1, SVG Export Plug-In . SVG Version: 6.00 Build 0)  -->
<svg version="1.1" id="Capa_1" xmlns="http://www.w3.org/2000/svg" xmlns:xlink="http://www.w3.org/1999/xlink" x="0px" y="0px"
	 viewBox="0 0 45 45" style="enable-background:new 0 0 45 45;" xml:space="preserve">
<style type="text/css">
	.st0{fill:none;}
	.st1{fill:#176174;}
	.st2{fill:#D4D7C9;}
	.st3{fill:#F1F0F0;}
	.st4{fill:#6F888E;}
	.st5{fill:#B21818;}
	.st6{fill:#EF4941;}
</style>
<rect y="0.1" class="st0" width="45" height="45"/>
<g>
	<path class="st1" d="M28.9,18.9c-0.1-0.5-0.1-1.4-0.1-1.4v0l0,0c-0.5-2.4-2.6-4-5.7-4.3l0,0L17,14.2l0,0c-0.3,0.3-0.7,0.9-1.1,1.4
		l-0.2,0.3l8.4,2.4l0,0c0,0,0.8,0.3,1.3,0.3c0.6,0,1.3-0.2,1.5-0.3l2,0.9L28.9,18.9z"/>
	<g>
		<path class="st1" d="M0,28.7c0,3.3,2.6,5.9,5.9,5.9c3.3,0,5.9-2.6,5.9-5.9c0-3.3-2.6-5.9-5.9-5.9C2.6,22.8,0,25.4,0,28.7z"/>
		<g>
			<path class="st2" d="M9.3,28.7c0,1.9-1.5,3.4-3.4,3.4v-6.9C7.8,25.2,9.3,26.8,9.3,28.7z"/>
			<path class="st3" d="M5.9,25.2v6.9c-1.9,0-3.4-1.5-3.4-3.4C2.5,26.8,4,25.2,5.9,25.2z"/>
		</g>
	</g>
	<g>
		<path class="st1" d="M33.2,28.7c0,3.3,2.6,5.9,5.9,5.9c3.3,0,5.9-2.6,5.9-5.9c0-3.3-2.6-5.9-5.9-5.9
			C35.8,22.8,33.2,25.4,33.2,28.7z"/>
		<g>
			<path class="st2" d="M42.5,28.7c0,1.9-1.5,3.4-3.4,3.4v-6.9C41,25.2,42.5,26.8,42.5,28.7z"/>
			<path class="st3" d="M39.1,25.2v6.9c-1.9,0-3.4-1.5-3.4-3.4C35.7,26.8,37.2,25.2,39.1,25.2z"/>
		</g>
	</g>
	<path class="st4" d="M6.6,29l4.9-4.9L10.4,23l-4.9,4.8C5.3,28,5,28.3,5,28.6c0,0.5,0.4,0.9,0.9,0.9c0.1,0,0.2,0,0.4-0.1l0.1,0
		C6.5,29.3,6.6,29.2,6.6,29z"/>
	<path class="st5" d="M39.7,28l-3.4-4.3c-0.3-0.3-0.7-0.5-1.1-0.5c-0.6,0-1.1,0.3-1.2,0.3l-3.9,2c0-0.2-0.2-0.5,0-0.7
		c-1.7,0-3-1.9-4.5-2.6c-0.8-0.3-1.2-0.5-1.9-0.9c-1.1-0.6-3-2.1-4.3-2.2c-2.2-0.2-5.9-0.4-8.1,0.1c-1.6,0.3-3.2,1.6-3.8,3.3
		l4.7,3.7c0.7,0.9,0.9,2,0.9,3l0,1.8l3.3,0l14.7,0l3.3-4.4l4.2,2.7l0,0c0.1,0.1,0.3,0.1,0.4,0.1c0.5,0,0.9-0.4,0.9-0.9
		C40,28.4,39.9,28.2,39.7,28z"/>
	<path class="st6" d="M42.8,14.4c0,0-4.7,1.5-5.6,1.8c-2.9,0.9-6,1.1-7.6,1.1c-0.7,0-1.1,0-1.1,0l0,0L26.9,18l0,0c0,0-0.1,0-0.1,0
		c-0.1,0-0.8,0.3-1.4,0.3c-0.4,0-1.1-0.2-1.2-0.3L16,15.6l0,0.1c0,0-0.1,0.1-0.1,0.2l0,0l-0.1,0.1c-0.3,0.3-0.7,0.6-1.4,0.9h-2.8
		c-0.9,0-1-1-1-1l0-0.1c0,0,0,0,0,0c1.4-1.3,2.9-1.9,3.6-2.2c0.1,0,0.2-0.1,0.3-0.1c0.1,0,0.1,0,0.1,0c0.1,0,0.1-0.1,0.2-0.1
		c0,0,0,0,0.1,0c0,0,0,0,0,0c0.1-0.1,0.3-0.1,0.4-0.3c0.2-0.2,0.1-0.4,0.1-0.4l0,0c0-0.3-0.2-0.6-0.6-0.9L13,10.4l-7,6.2
		c-0.8,0.7-1.3,1.3-1.4,1.4c-0.7,0.6-1,1.1-0.8,1.5l3.8,3c1.6-0.9,3-1.7,4.5-2.1c1.6-0.4,4.3-0.5,6.6-0.2c1.6,0.2,3.3,1,4.4,1.6
		c0.8,0.4,1.5,0.8,2.3,1.3c1.7,1.1,2.6,2.4,4.8,2.4c0,0,0-0.7,0-0.7c12.9-7.5,14.1-9,14.1-9C45.3,14.4,44.5,13.7,42.8,14.4z"/>
</g>
</svg>
