<?xml version="1.0" encoding="utf-8"?>
<!-- Generator: Adobe Illustrator 22.0.1, SVG Export Plug-In . SVG Version: 6.00 Build 0)  -->
<svg version="1.1" id="Capa_1" xmlns="http://www.w3.org/2000/svg" xmlns:xlink="http://www.w3.org/1999/xlink" x="0px" y="0px"
	 viewBox="0 0 45 45" style="enable-background:new 0 0 45 45;" xml:space="preserve">
<style type="text/css">
	.st0{fill:none;}
	.st1{fill:#C7EFFF;}
	.st2{fill:#71C7E2;}
	.st3{fill:#333333;}
	.st4{fill:#FFE845;}
	.st5{fill:#EAC426;}
</style>
<rect y="0" class="st0" width="45" height="45"/>
<g>
	<path class="st1" d="M14.4,7.2c-0.3,0.5-0.8,1-1.3,1.3c-0.5,0.3-1,0.4-1.6,0.5c-0.1,0.4-3.1,12.1-3.2,12.4c0.5,0.3,0.8,0.7,1.1,1.2
		c0.3,0.5,0.5,1.1,0.5,1.8c0.4,0.1,26.8,6.9,27.2,7c0.3-0.5,0.8-1,1.3-1.3c0.6-0.3,1.2-0.5,1.9-0.5c0.1-0.4,3.1-11.9,3.2-12.2
		c-0.6-0.3-1-0.8-1.4-1.3c-0.3-0.6-0.5-1.2-0.5-1.8C41.2,14.2,14.8,7.3,14.4,7.2z M12.6,7.7L12.6,7.7L12.6,7.7z"/>
	<path class="st2" d="M42.3,15.9c-0.3-0.6-0.5-1.2-0.5-1.9L14.3,6.9C14,7.5,13.5,8,12.9,8.3c-0.5,0.3-1.1,0.5-1.6,0.5L8,21.6
		c0.5,0.3,0.9,0.7,1.2,1.2c0.3,0.6,0.5,1.2,0.5,1.8l27.6,7.1c0.3-0.6,0.7-1,1.3-1.4c0.6-0.3,1.3-0.5,1.9-0.5l3.3-12.6
		C43.2,17,42.7,16.5,42.3,15.9z M40.1,29.4c-0.6,0-1.2,0.2-1.8,0.6c-0.5,0.3-1,0.7-1.3,1.2l-26.8-6.9c-0.1-0.6-0.2-1.2-0.5-1.7
		c-0.3-0.5-0.6-0.9-1-1.2l3.1-12c0.5-0.1,1-0.3,1.5-0.5c0.5-0.3,1-0.7,1.3-1.3l26.8,6.9c0,0.6,0.2,1.2,0.6,1.7v0
		c0.3,0.5,0.8,1,1.3,1.3L40.1,29.4z"/>
	<path class="st3" d="M41,31c0,0-0.1,0-0.1,0C40.9,31,40.9,31,41,31C41,31,41,31,41,31C41,31,41,31,41,31L41,31z"/>
	<path class="st3" d="M40.8,31c0,0-0.1,0-0.1,0C40.8,30.9,40.8,30.9,40.8,31L40.8,31z"/>
	<path class="st3" d="M38,32.7C38,32.8,38,32.8,38,32.7c0,0.1,0,0.2-0.1,0.2l0,0C37.9,32.9,37.9,32.8,38,32.7
		C38,32.8,38,32.8,38,32.7L38,32.7z"/>
	<g>
		<path class="st2" d="M11.3,24.5l-0.6-0.2l0.8-2.9l0.6,0.2L11.3,24.5z M12.9,18.1l-0.6-0.2l0.9-3.5l0.6,0.2L12.9,18.1z M14.7,11.1
			l-0.6-0.2l0.9-3.5l0.6,0.2L14.7,11.1z"/>
	</g>
	<g>
		<path class="st2" d="M36.6,31L36,30.8l0.8-2.9l0.6,0.2L36.6,31z M38.3,24.6l-0.6-0.2l0.9-3.5l0.6,0.2L38.3,24.6z M40.1,17.6
			l-0.6-0.2l0.9-3.5l0.6,0.2L40.1,17.6z"/>
	</g>
	<g>
		<rect x="26.2" y="3.9" transform="matrix(0.2498 -0.9683 0.9683 0.2498 4.6168 37.7713)" class="st2" width="0.9" height="24.1"/>
	</g>
	<path class="st4" d="M7.8,19.8c-0.2,0.6-0.5,1.2-1,1.6c-0.4,0.4-0.9,0.7-1.4,0.9c0,0.4-0.1,12.5-0.1,12.8c0.5,0.2,1,0.5,1.4,0.9
		c0.4,0.4,0.8,1,0.9,1.6c0.4,0,27.7,0.2,28.1,0.2c0.2-0.6,0.5-1.1,0.9-1.6c0.5-0.5,1-0.8,1.7-0.9c0-0.4,0.1-12.3,0.1-12.6
		c-0.6-0.2-1.2-0.5-1.7-1c-0.5-0.5-0.8-1-0.9-1.6C35.4,20,8.2,19.8,7.8,19.8z M6.1,20.8L6.1,20.8L6.1,20.8z"/>
	<path class="st5" d="M37,21.5c-0.5-0.5-0.8-1.1-0.9-1.7L7.6,19.6c-0.1,0.6-0.5,1.2-1,1.7c-0.4,0.4-0.9,0.7-1.5,0.9L5.1,35.3
		c0.5,0.2,1,0.5,1.5,0.9c0.5,0.5,0.8,1,0.9,1.7l28.5,0.2c0.1-0.6,0.5-1.2,0.9-1.7c0.5-0.5,1.1-0.8,1.7-0.9l0.1-13.1
		C38,22.3,37.5,22,37,21.5z M38.1,35.1c-0.6,0.2-1.1,0.5-1.6,1c-0.4,0.4-0.8,0.9-1,1.5L7.9,37.3c-0.2-0.6-0.5-1.1-0.9-1.5
		c-0.4-0.4-0.8-0.7-1.3-0.9l0.1-12.4C6.2,22.3,6.6,22,7,21.6c0.4-0.4,0.8-1,1-1.5l27.6,0.2c0.2,0.6,0.5,1.1,1,1.6v0
		c0.4,0.5,1,0.8,1.6,1L38.1,35.1z"/>
	<g>
		<path class="st5" d="M8.9,37.3l-0.6,0l0-3l0.6,0L8.9,37.3z M9,30.7l-0.6,0l0-3.6l0.6,0L9,30.7z M9,23.5l-0.6,0l0-3.6l0.6,0L9,23.5
			z"/>
	</g>
	<g>
		<path class="st5" d="M35.1,37.5l-0.6,0l0-3l0.6,0L35.1,37.5z M35.1,30.9l-0.6,0l0-3.6l0.6,0L35.1,30.9z M35.2,23.7l-0.6,0l0-3.6
			l0.6,0L35.2,23.7z"/>
	</g>
	<g>
		
			<rect x="21.3" y="11.8" transform="matrix(6.773456e-03 -1 1 6.773456e-03 -2.2483 45.505)" class="st5" width="0.9" height="24.1"/>
	</g>
</g>
</svg>
